STARTFONT 2.1
FONT -B&H-Lucida Bright-DemiBold-R-Normal--14-140-72-72-P-84-ISO8859-1
SIZE 14 72 72
FONTBOUNDINGBOX 23 17 -8 -3

STARTPROPERTIES 22
FONTNAME_REGISTRY "-"
FOUNDRY "B&H"
FAMILY_NAME "Lucida Bright"
WEIGHT_NAME "DemiBold"
SLANT "R"
SETWIDTH_NAME "Normal"
ADD_STYLE_NAME ""
PIXEL_SIZE 14
POINT_SIZE 140
RESOLUTION_X 72
RESOLUTION_Y 72
SPACING "P"
CHARSET_REGISTRY "ISO8859"
CHARSET_ENCODING "1"
FULL_NAME "LucidaBright-Demi"
AVERAGE_WIDTH 84
WEIGHT 10
X_HEIGHT 8
QUAD_WIDTH 9
DEFAULT_CHAR 32
FONT_DESCENT 2
FONT_ASCENT 13
ENDPROPERTIES

CHARS 190

STARTCHAR space
ENCODING 32
SWIDTH 333 0
DWIDTH 5 0
BBX 1 1 0 0
BITMAP
00
ENDCHAR

STARTCHAR exclam
ENCODING 33
SWIDTH 265 0
DWIDTH 4 0
BBX 2 11 1 0
BITMAP
C0
C0
C0
C0
C0
80
80
80
00
C0
C0
ENDCHAR

STARTCHAR quotedbl
ENCODING 34
SWIDTH 461 0
DWIDTH 6 0
BBX 5 4 1 7
BITMAP
D8
D8
48
48
ENDCHAR

STARTCHAR numbersign
ENCODING 35
SWIDTH 663 0
DWIDTH 9 0
BBX 9 11 0 0
BITMAP
0B00
1200
1200
7F80
1600
2400
2400
FF00
2400
2800
4800
ENDCHAR

STARTCHAR dollar
ENCODING 36
SWIDTH 623 0
DWIDTH 9 0
BBX 7 13 1 -1
BITMAP
10
7E
D2
D2
D0
70
38
1C
16
96
96
FC
10
ENDCHAR

STARTCHAR percent
ENCODING 37
SWIDTH 759 0
DWIDTH 11 0
BBX 9 11 1 0
BITMAP
6180
9100
9200
9600
6400
0800
1300
3480
2480
4480
C300
ENDCHAR

STARTCHAR ampersand
ENCODING 38
SWIDTH 765 0
DWIDTH 11 0
BBX 10 11 0 0
BITMAP
1E00
3300
3300
3E00
1800
7DC0
CC80
CE80
C780
6380
3DC0
ENDCHAR

STARTCHAR quoteright
ENCODING 39
SWIDTH 265 0
DWIDTH 4 0
BBX 2 4 1 7
BITMAP
C0
C0
40
80
ENDCHAR

STARTCHAR parenleft
ENCODING 40
SWIDTH 327 0
DWIDTH 5 0
BBX 4 13 0 -2
BITMAP
10
20
60
40
C0
C0
C0
C0
C0
40
60
20
10
ENDCHAR

STARTCHAR parenright
ENCODING 41
SWIDTH 327 0
DWIDTH 5 0
BBX 4 13 0 -2
BITMAP
80
40
60
20
30
30
30
30
30
20
60
40
80
ENDCHAR

STARTCHAR asterisk
ENCODING 42
SWIDTH 434 0
DWIDTH 6 0
BBX 5 5 0 5
BITMAP
20
A8
50
70
58
ENDCHAR

STARTCHAR plus
ENCODING 43
SWIDTH 623 0
DWIDTH 9 0
BBX 9 9 0 0
BITMAP
0800
0800
0800
0800
FF80
0800
0800
0800
0800
ENDCHAR

STARTCHAR comma
ENCODING 44
SWIDTH 265 0
DWIDTH 4 0
BBX 2 5 1 -2
BITMAP
C0
C0
C0
40
80
ENDCHAR

STARTCHAR minus
ENCODING 45
SWIDTH 623 0
DWIDTH 9 0
BBX 8 1 0 3
BITMAP
FF
ENDCHAR

STARTCHAR period
ENCODING 46
SWIDTH 265 0
DWIDTH 4 0
BBX 2 2 1 0
BITMAP
C0
C0
ENDCHAR

STARTCHAR slash
ENCODING 47
SWIDTH 527 0
DWIDTH 7 0
BBX 7 13 0 -2
BITMAP
02
02
04
04
08
08
10
10
20
20
40
40
80
ENDCHAR

STARTCHAR zero
ENCODING 48
SWIDTH 623 0
DWIDTH 9 0
BBX 8 11 0 0
BITMAP
3C
66
42
C3
C3
C3
C3
C3
42
66
3C
ENDCHAR

STARTCHAR one
ENCODING 49
SWIDTH 623 0
DWIDTH 9 0
BBX 6 11 1 0
BITMAP
F0
30
30
30
30
30
30
30
30
30
FC
ENDCHAR

STARTCHAR two
ENCODING 50
SWIDTH 623 0
DWIDTH 9 0
BBX 7 11 1 0
BITMAP
FC
8E
86
06
06
0C
10
20
40
FE
FE
ENDCHAR

STARTCHAR three
ENCODING 51
SWIDTH 623 0
DWIDTH 9 0
BBX 6 11 1 0
BITMAP
F8
8C
8C
0C
18
78
1C
0C
8C
9C
F8
ENDCHAR

STARTCHAR four
ENCODING 52
SWIDTH 623 0
DWIDTH 9 0
BBX 8 11 0 0
BITMAP
06
0E
16
36
26
46
C6
FF
06
06
0F
ENDCHAR

STARTCHAR five
ENCODING 53
SWIDTH 623 0
DWIDTH 9 0
BBX 6 11 2 0
BITMAP
FC
80
80
80
80
F0
1C
0C
8C
8C
F8
ENDCHAR

STARTCHAR six
ENCODING 54
SWIDTH 623 0
DWIDTH 9 0
BBX 8 11 0 0
BITMAP
3E
62
42
C0
DE
E7
C3
C3
C3
66
3C
ENDCHAR

STARTCHAR seven
ENCODING 55
SWIDTH 623 0
DWIDTH 9 0
BBX 7 11 1 0
BITMAP
FE
FE
06
04
08
18
30
30
60
60
60
ENDCHAR

STARTCHAR eight
ENCODING 56
SWIDTH 623 0
DWIDTH 9 0
BBX 8 11 0 0
BITMAP
3E
C3
C3
E3
7E
4E
C7
C3
C3
E7
3C
ENDCHAR

STARTCHAR nine
ENCODING 57
SWIDTH 623 0
DWIDTH 9 0
BBX 8 11 0 0
BITMAP
3C
66
C3
C3
C3
E7
7B
03
82
86
F8
ENDCHAR

STARTCHAR colon
ENCODING 58
SWIDTH 265 0
DWIDTH 4 0
BBX 2 8 1 0
BITMAP
C0
C0
00
00
00
00
C0
C0
ENDCHAR

STARTCHAR semicolon
ENCODING 59
SWIDTH 265 0
DWIDTH 4 0
BBX 2 10 1 -2
BITMAP
C0
C0
00
00
00
00
C0
C0
40
80
ENDCHAR

STARTCHAR less
ENCODING 60
SWIDTH 623 0
DWIDTH 9 0
BBX 8 8 0 0
BITMAP
01
06
18
E0
60
18
06
01
ENDCHAR

STARTCHAR equal
ENCODING 61
SWIDTH 623 0
DWIDTH 9 0
BBX 8 3 0 2
BITMAP
FF
00
FF
ENDCHAR

STARTCHAR greater
ENCODING 62
SWIDTH 623 0
DWIDTH 9 0
BBX 8 8 0 0
BITMAP
80
60
18
06
07
18
60
80
ENDCHAR

STARTCHAR question
ENCODING 63
SWIDTH 505 0
DWIDTH 7 0
BBX 6 11 1 0
BITMAP
F8
9C
8C
0C
18
20
60
60
00
60
60
ENDCHAR

STARTCHAR at
ENCODING 64
SWIDTH 861 0
DWIDTH 12 0
BBX 11 11 1 0
BITMAP
0F80
30C0
2060
4720
8B20
9220
9660
9640
DB80
6200
3C00
ENDCHAR

STARTCHAR A
ENCODING 65
SWIDTH 795 0
DWIDTH 11 0
BBX 11 11 0 0
BITMAP
0400
0C00
0E00
0E00
1300
1300
2180
3F80
4180
40C0
E1E0
ENDCHAR

STARTCHAR B
ENCODING 66
SWIDTH 639 0
DWIDTH 9 0
BBX 8 11 0 0
BITMAP
FE
67
63
63
64
7C
66
63
63
67
FE
ENDCHAR

STARTCHAR C
ENCODING 67
SWIDTH 711 0
DWIDTH 10 0
BBX 8 11 1 0
BITMAP
1F
61
61
C0
C0
C0
C0
C0
60
61
1E
ENDCHAR

STARTCHAR D
ENCODING 68
SWIDTH 794 0
DWIDTH 11 0
BBX 10 11 0 0
BITMAP
FF00
6380
6180
60C0
60C0
60C0
60C0
60C0
6180
6180
FE00
ENDCHAR

STARTCHAR E
ENCODING 69
SWIDTH 601 0
DWIDTH 8 0
BBX 8 11 0 0
BITMAP
FF
61
60
60
62
7E
62
60
60
61
FF
ENDCHAR

STARTCHAR F
ENCODING 70
SWIDTH 584 0
DWIDTH 8 0
BBX 7 11 0 0
BITMAP
FE
62
60
60
64
7C
64
60
60
60
F0
ENDCHAR

STARTCHAR G
ENCODING 71
SWIDTH 753 0
DWIDTH 11 0
BBX 10 11 0 0
BITMAP
1F80
7080
6080
C000
C000
C000
C3C0
C180
6180
7180
1F80
ENDCHAR

STARTCHAR H
ENCODING 72
SWIDTH 798 0
DWIDTH 11 0
BBX 10 11 1 0
BITMAP
F3C0
6180
6180
6180
6180
7F80
6180
6180
6180
6180
F3C0
ENDCHAR

STARTCHAR I
ENCODING 73
SWIDTH 349 0
DWIDTH 5 0
BBX 4 11 0 0
BITMAP
F0
60
60
60
60
60
60
60
60
60
F0
ENDCHAR

STARTCHAR J
ENCODING 74
SWIDTH 452 0
DWIDTH 6 0
BBX 6 13 0 -2
BITMAP
3C
18
18
18
18
18
18
18
18
18
18
98
F0
ENDCHAR

STARTCHAR K
ENCODING 75
SWIDTH 747 0
DWIDTH 10 0
BBX 10 11 0 0
BITMAP
F380
6100
6200
6400
6800
7800
7C00
6E00
6700
6380
F7C0
ENDCHAR

STARTCHAR L
ENCODING 76
SWIDTH 584 0
DWIDTH 8 0
BBX 8 11 0 0
BITMAP
F0
60
60
60
60
60
60
60
61
61
FF
ENDCHAR

STARTCHAR M
ENCODING 77
SWIDTH 904 0
DWIDTH 13 0
BBX 12 11 0 0
BITMAP
E070
70E0
70E0
59E0
5960
4960
4E60
4E60
4660
4460
E0F0
ENDCHAR

STARTCHAR N
ENCODING 78
SWIDTH 788 0
DWIDTH 11 0
BBX 10 11 0 0
BITMAP
E1C0
6080
7080
5880
5880
4C80
4680
4680
4380
4180
E180
ENDCHAR

STARTCHAR O
ENCODING 79
SWIDTH 810 0
DWIDTH 11 0
BBX 10 11 1 0
BITMAP
1E00
6180
6180
C0C0
C0C0
C0C0
C0C0
C0C0
6180
6180
1E00
ENDCHAR

STARTCHAR P
ENCODING 80
SWIDTH 614 0
DWIDTH 9 0
BBX 8 11 0 0
BITMAP
FE
67
63
63
63
66
7C
60
60
60
F0
ENDCHAR

STARTCHAR Q
ENCODING 81
SWIDTH 810 0
DWIDTH 11 0
BBX 12 13 1 -2
BITMAP
1E00
6180
6180
C0C0
C0C0
C0C0
C0C0
C0C0
61C0
6180
1F00
0100
00F0
ENDCHAR

STARTCHAR R
ENCODING 82
SWIDTH 720 0
DWIDTH 10 0
BBX 10 11 0 0
BITMAP
FE00
6700
6300
6300
6200
6400
7C00
6600
6700
6300
F1C0
ENDCHAR

STARTCHAR S
ENCODING 83
SWIDTH 556 0
DWIDTH 8 0
BBX 7 11 1 0
BITMAP
7C
C4
C4
C0
70
3C
0E
06
86
8E
F8
ENDCHAR

STARTCHAR T
ENCODING 84
SWIDTH 714 0
DWIDTH 10 0
BBX 10 11 0 0
BITMAP
FFC0
8C40
0C00
0C00
0C00
0C00
0C00
0C00
0C00
0C00
1E00
ENDCHAR

STARTCHAR U
ENCODING 85
SWIDTH 747 0
DWIDTH 10 0
BBX 10 11 0 0
BITMAP
F1C0
6080
6080
6080
6080
6080
6080
6080
6080
3100
1E00
ENDCHAR

STARTCHAR V
ENCODING 86
SWIDTH 753 0
DWIDTH 11 0
BBX 11 11 0 0
BITMAP
F0E0
6040
3080
3080
3900
1900
1900
0E00
0E00
0C00
0400
ENDCHAR

STARTCHAR W
ENCODING 87
SWIDTH 955 0
DWIDTH 13 0
BBX 13 11 0 0
BITMAP
F218
6308
6310
2310
3590
35A0
35A0
14A0
18C0
18C0
1840
ENDCHAR

STARTCHAR X
ENCODING 88
SWIDTH 702 0
DWIDTH 10 0
BBX 10 11 0 0
BITMAP
F9C0
3080
3100
1A00
1E00
0C00
1600
2600
2300
4380
E7C0
ENDCHAR

STARTCHAR Y
ENCODING 89
SWIDTH 717 0
DWIDTH 10 0
BBX 10 11 0 0
BITMAP
F1C0
6080
3100
3900
1A00
1C00
0C00
0C00
0C00
0C00
1E00
ENDCHAR

STARTCHAR Z
ENCODING 90
SWIDTH 639 0
DWIDTH 9 0
BBX 7 11 1 0
BITMAP
FE
86
0C
0C
18
38
30
60
60
C2
FE
ENDCHAR

STARTCHAR bracketleft
ENCODING 91
SWIDTH 327 0
DWIDTH 5 0
BBX 3 13 1 -2
BITMAP
E0
C0
C0
C0
C0
C0
C0
C0
C0
C0
C0
C0
E0
ENDCHAR

STARTCHAR backslash
ENCODING 92
SWIDTH 527 0
DWIDTH 7 0
BBX 7 13 0 -2
BITMAP
80
40
40
20
20
10
10
08
08
04
04
02
02
ENDCHAR

STARTCHAR bracketright
ENCODING 93
SWIDTH 327 0
DWIDTH 5 0
BBX 3 13 1 -2
BITMAP
E0
60
60
60
60
60
60
60
60
60
60
60
E0
ENDCHAR

STARTCHAR asciicircum
ENCODING 94
SWIDTH 623 0
DWIDTH 9 0
BBX 8 9 0 2
BITMAP
08
18
18
24
24
66
42
42
81
ENDCHAR

STARTCHAR underscore
ENCODING 95
SWIDTH 500 0
DWIDTH 7 0
BBX 6 1 1 -1
BITMAP
FC
ENDCHAR

STARTCHAR quoteleft
ENCODING 96
SWIDTH 265 0
DWIDTH 4 0
BBX 2 4 1 7
BITMAP
40
80
C0
C0
ENDCHAR

STARTCHAR a
ENCODING 97
SWIDTH 556 0
DWIDTH 8 0
BBX 7 8 0 0
BITMAP
78
4C
0C
7C
CC
CC
CC
76
ENDCHAR

STARTCHAR b
ENCODING 98
SWIDTH 640 0
DWIDTH 9 0
BBX 8 11 0 0
BITMAP
E0
60
60
7E
63
63
63
63
63
66
7E
ENDCHAR

STARTCHAR c
ENCODING 99
SWIDTH 541 0
DWIDTH 8 0
BBX 6 8 1 0
BITMAP
3C
64
C4
C0
C0
C0
60
3C
ENDCHAR

STARTCHAR d
ENCODING 100
SWIDTH 652 0
DWIDTH 9 0
BBX 8 11 1 0
BITMAP
0E
06
06
7E
66
C6
C6
C6
C6
C6
7F
ENDCHAR

STARTCHAR e
ENCODING 101
SWIDTH 568 0
DWIDTH 8 0
BBX 7 8 0 0
BITMAP
3C
46
C6
FE
C0
C0
62
3E
ENDCHAR

STARTCHAR f
ENCODING 102
SWIDTH 416 0
DWIDTH 6 0
BBX 6 11 0 0
BITMAP
3C
64
60
F8
60
60
60
60
60
60
F0
ENDCHAR

STARTCHAR g
ENCODING 103
SWIDTH 599 0
DWIDTH 8 0
BBX 7 11 1 -3
BITMAP
7E
C8
CC
CC
4C
78
C0
7E
C6
C6
7C
ENDCHAR

STARTCHAR h
ENCODING 104
SWIDTH 654 0
DWIDTH 9 0
BBX 9 11 0 0
BITMAP
E000
6000
6000
6E00
7300
6300
6300
6300
6300
6300
F780
ENDCHAR

STARTCHAR i
ENCODING 105
SWIDTH 325 0
DWIDTH 5 0
BBX 4 11 0 0
BITMAP
60
60
00
E0
60
60
60
60
60
60
F0
ENDCHAR

STARTCHAR j
ENCODING 106
SWIDTH 355 0
DWIDTH 5 0
BBX 5 14 0 -3
BITMAP
18
18
00
38
18
18
18
18
18
18
18
18
98
F0
ENDCHAR

STARTCHAR k
ENCODING 107
SWIDTH 654 0
DWIDTH 9 0
BBX 9 11 0 0
BITMAP
E000
6000
6000
6700
6200
6C00
7800
6C00
6E00
6700
F380
ENDCHAR

STARTCHAR l
ENCODING 108
SWIDTH 325 0
DWIDTH 5 0
BBX 4 11 0 0
BITMAP
E0
60
60
60
60
60
60
60
60
60
F0
ENDCHAR

STARTCHAR m
ENCODING 109
SWIDTH 967 0
DWIDTH 14 0
BBX 14 8 0 0
BITMAP
EF70
7398
6318
6318
6318
6318
6318
F7BC
ENDCHAR

STARTCHAR n
ENCODING 110
SWIDTH 654 0
DWIDTH 9 0
BBX 9 8 0 0
BITMAP
EE00
7300
6300
6300
6300
6300
6300
F780
ENDCHAR

STARTCHAR o
ENCODING 111
SWIDTH 617 0
DWIDTH 9 0
BBX 8 8 0 0
BITMAP
3C
66
C3
C3
C3
C3
66
3C
ENDCHAR

STARTCHAR p
ENCODING 112
SWIDTH 652 0
DWIDTH 9 0
BBX 8 11 0 -3
BITMAP
FE
63
63
63
63
63
66
7E
60
60
F0
ENDCHAR

STARTCHAR q
ENCODING 113
SWIDTH 640 0
DWIDTH 9 0
BBX 8 11 1 -3
BITMAP
7E
66
C6
C6
C6
C6
C6
7E
06
06
0F
ENDCHAR

STARTCHAR r
ENCODING 114
SWIDTH 462 0
DWIDTH 6 0
BBX 6 8 0 0
BITMAP
FC
64
60
60
60
60
60
F0
ENDCHAR

STARTCHAR s
ENCODING 115
SWIDTH 525 0
DWIDTH 7 0
BBX 6 8 1 0
BITMAP
78
C8
C8
F0
3C
8C
8C
F8
ENDCHAR

STARTCHAR t
ENCODING 116
SWIDTH 389 0
DWIDTH 5 0
BBX 5 10 0 0
BITMAP
20
60
F8
60
60
60
60
60
60
38
ENDCHAR

STARTCHAR u
ENCODING 117
SWIDTH 654 0
DWIDTH 9 0
BBX 9 8 0 0
BITMAP
E700
6300
6300
6300
6300
6300
6700
3B80
ENDCHAR

STARTCHAR v
ENCODING 118
SWIDTH 657 0
DWIDTH 9 0
BBX 9 8 0 0
BITMAP
F380
6100
3100
3200
1A00
1C00
0C00
0800
ENDCHAR

STARTCHAR w
ENCODING 119
SWIDTH 880 0
DWIDTH 12 0
BBX 12 8 0 0
BITMAP
F230
6220
2720
3520
35C0
19C0
18C0
1080
ENDCHAR

STARTCHAR x
ENCODING 120
SWIDTH 608 0
DWIDTH 9 0
BBX 9 8 0 0
BITMAP
F300
7200
3400
1C00
1C00
2C00
4600
EF80
ENDCHAR

STARTCHAR y
ENCODING 121
SWIDTH 654 0
DWIDTH 9 0
BBX 9 11 0 -3
BITMAP
F380
6100
3100
3200
1E00
1C00
0C00
0800
0800
1000
7000
ENDCHAR

STARTCHAR z
ENCODING 122
SWIDTH 584 0
DWIDTH 8 0
BBX 6 8 1 0
BITMAP
FC
8C
18
30
30
60
C4
FC
ENDCHAR

STARTCHAR braceleft
ENCODING 123
SWIDTH 366 0
DWIDTH 5 0
BBX 4 13 1 -2
BITMAP
30
60
60
60
60
60
C0
60
60
60
60
60
30
ENDCHAR

STARTCHAR bar
ENCODING 124
SWIDTH 259 0
DWIDTH 4 0
BBX 1 13 1 -2
BITMAP
80
80
80
80
80
80
80
80
80
80
80
80
80
ENDCHAR

STARTCHAR braceright
ENCODING 125
SWIDTH 366 0
DWIDTH 5 0
BBX 4 13 9 -2
BITMAP
C0
60
60
60
60
60
30
60
60
60
60
60
C0
ENDCHAR

STARTCHAR asciitilde
ENCODING 126
SWIDTH 623 0
DWIDTH 9 0
BBX 8 2 0 3
BITMAP
71
8E
ENDCHAR

STARTCHAR exclamdown
ENCODING 161
SWIDTH 265 0
DWIDTH 4 0
BBX 2 11 1 -3
BITMAP
C0
C0
00
80
80
80
C0
C0
C0
C0
C0
ENDCHAR

STARTCHAR cent
ENCODING 162
SWIDTH 623 0
DWIDTH 9 0
BBX 7 11 1 0
BITMAP
08
3E
6A
CA
C8
C8
C8
C8
68
3E
08
ENDCHAR

STARTCHAR sterling
ENCODING 163
SWIDTH 623 0
DWIDTH 9 0
BBX 6 11 2 0
BITMAP
3C
64
64
60
60
F8
60
60
60
C0
FC
ENDCHAR

STARTCHAR currency
ENCODING 164
SWIDTH 623 0
DWIDTH 9 0
BBX 8 9 0 1
BITMAP
81
C3
7E
66
42
42
66
7E
81
ENDCHAR

STARTCHAR yen
ENCODING 165
SWIDTH 623 0
DWIDTH 9 0
BBX 9 11 0 0
BITMAP
F380
6100
6300
3200
1C00
1C00
7E00
1800
7E00
1800
3C00
ENDCHAR

STARTCHAR brokenbar
ENCODING 166
SWIDTH 259 0
DWIDTH 4 0
BBX 1 13 1 -2
BITMAP
80
80
80
80
80
80
00
80
80
80
80
80
80
ENDCHAR

STARTCHAR section
ENCODING 167
SWIDTH 623 0
DWIDTH 9 0
BBX 7 13 1 -2
BITMAP
7C
C4
C4
E0
78
9C
84
E4
78
0C
86
86
FC
ENDCHAR

STARTCHAR dieresis
ENCODING 168
SWIDTH 617 0
DWIDTH 9 0
BBX 4 1 2 10
BITMAP
90
ENDCHAR

STARTCHAR copyright
ENCODING 169
SWIDTH 855 0
DWIDTH 12 0
BBX 11 11 0 0
BITMAP
1F00
2080
4F40
9920
9020
9020
9020
9820
4F40
2080
1F00
ENDCHAR

STARTCHAR ordfeminine
ENCODING 170
SWIDTH 488 0
DWIDTH 7 0
BBX 6 5 1 6
BITMAP
F0
98
78
D8
EC
ENDCHAR

STARTCHAR guillemotleft
ENCODING 171
SWIDTH 566 0
DWIDTH 8 0
BBX 8 6 0 1
BITMAP
11
22
CC
44
22
11
ENDCHAR

STARTCHAR logicalnot
ENCODING 172
SWIDTH 623 0
DWIDTH 9 0
BBX 8 3 0 2
BITMAP
FF
01
01
ENDCHAR

STARTCHAR hyphen
ENCODING 173
SWIDTH 289 0
DWIDTH 4 0
BBX 3 1 1 4
BITMAP
E0
ENDCHAR

STARTCHAR registered
ENCODING 174
SWIDTH 623 0
DWIDTH 9 0
BBX 7 7 1 4
BITMAP
38
44
BA
B2
AA
44
38
ENDCHAR

STARTCHAR macron
ENCODING 175
SWIDTH 617 0
DWIDTH 9 0
BBX 4 1 2 10
BITMAP
F0
ENDCHAR

STARTCHAR degree
ENCODING 176
SWIDTH 259 0
DWIDTH 4 0
BBX 3 3 0 8
BITMAP
E0
A0
E0
ENDCHAR

STARTCHAR plusminus
ENCODING 177
SWIDTH 623 0
DWIDTH 9 0
BBX 9 9 0 0
BITMAP
0800
0800
0800
FF80
0800
0800
0800
0000
FF80
ENDCHAR

STARTCHAR twosuperior
ENCODING 178
SWIDTH 374 0
DWIDTH 5 0
BBX 4 6 -7 5
BITMAP
E0
90
10
20
C0
F0
ENDCHAR

STARTCHAR threesuperior
ENCODING 179
SWIDTH 374 0
DWIDTH 5 0
BBX 4 6 -8 5
BITMAP
F0
10
F0
10
10
E0
ENDCHAR

STARTCHAR acute
ENCODING 180
SWIDTH 617 0
DWIDTH 9 0
BBX 3 2 3 9
BITMAP
60
80
ENDCHAR

STARTCHAR mu
ENCODING 181
SWIDTH 705 0
DWIDTH 10 0
BBX 9 10 0 -2
BITMAP
E700
6300
6300
6300
6300
6300
6700
7B80
6000
6000
ENDCHAR

STARTCHAR paragraph
ENCODING 182
SWIDTH 623 0
DWIDTH 9 0
BBX 5 13 1 -2
BITMAP
78
E8
E8
E8
68
28
28
28
28
28
28
28
28
ENDCHAR

STARTCHAR periodcentered
ENCODING 183
SWIDTH 623 0
DWIDTH 9 0
BBX 2 2 3 3
BITMAP
C0
C0
ENDCHAR

STARTCHAR cedilla
ENCODING 184
SWIDTH 617 0
DWIDTH 9 0
BBX 3 3 4 -3
BITMAP
80
60
60
ENDCHAR

STARTCHAR onesuperior
ENCODING 185
SWIDTH 374 0
DWIDTH 5 0
BBX 3 6 -8 5
BITMAP
C0
40
40
40
40
E0
ENDCHAR

STARTCHAR ordmasculine
ENCODING 186
SWIDTH 488 0
DWIDTH 7 0
BBX 6 5 0 6
BITMAP
78
CC
CC
CC
78
ENDCHAR

STARTCHAR guillemotright
ENCODING 187
SWIDTH 566 0
DWIDTH 8 0
BBX 8 6 0 1
BITMAP
88
44
22
33
44
88
ENDCHAR

STARTCHAR onequarter
ENCODING 188
SWIDTH 803 0
DWIDTH 11 0
BBX 10 11 -8 0
BITMAP
C180
4100
4200
4600
4400
E980
1980
1280
2680
47C0
C1C0
ENDCHAR

STARTCHAR onehalf
ENCODING 189
SWIDTH 803 0
DWIDTH 11 0
BBX 9 11 -8 0
BITMAP
C180
4100
4200
4600
4400
EF00
1C80
1080
2100
4600
C780
ENDCHAR

STARTCHAR threequarters
ENCODING 190
SWIDTH 803 0
DWIDTH 11 0
BBX 10 11 -8 0
BITMAP
F180
1100
F200
1600
1400
E980
1980
1280
2680
47C0
C1C0
ENDCHAR

STARTCHAR questiondown
ENCODING 191
SWIDTH 505 0
DWIDTH 7 0
BBX 6 11 1 -3
BITMAP
18
18
00
18
18
30
40
C0
C4
E4
7C
ENDCHAR

STARTCHAR Agrave
ENCODING 192
SWIDTH 795 0
DWIDTH 11 0
BBX 11 14 0 0
BITMAP
0C00
0200
0000
0400
0C00
0E00
0E00
1300
1300
2180
3F80
4180
40C0
E1E0
ENDCHAR

STARTCHAR Aacute
ENCODING 193
SWIDTH 795 0
DWIDTH 11 0
BBX 11 14 0 0
BITMAP
0300
0400
0000
0400
0C00
0E00
0E00
1300
1300
2180
3F80
4180
40C0
E1E0
ENDCHAR

STARTCHAR Acircumflex
ENCODING 194
SWIDTH 795 0
DWIDTH 11 0
BBX 11 14 0 0
BITMAP
0E00
1B00
0000
0400
0C00
0E00
0E00
1300
1300
2180
3F80
4180
40C0
E1E0
ENDCHAR

STARTCHAR Atilde
ENCODING 195
SWIDTH 795 0
DWIDTH 11 0
BBX 11 13 0 0
BITMAP
1F00
0000
0400
0C00
0E00
0E00
1300
1300
2180
3F80
4180
40C0
E1E0
ENDCHAR

STARTCHAR Adieresis
ENCODING 196
SWIDTH 795 0
DWIDTH 11 0
BBX 11 13 0 0
BITMAP
0900
0000
0400
0C00
0E00
0E00
1300
1300
2180
3F80
4180
40C0
E1E0
ENDCHAR

STARTCHAR Aring
ENCODING 197
SWIDTH 795 0
DWIDTH 11 0
BBX 11 14 0 0
BITMAP
0E00
0E00
0000
0400
0C00
0E00
0E00
1300
1300
2180
3F80
4180
40C0
E1E0
ENDCHAR

STARTCHAR AE
ENCODING 198
SWIDTH 959 0
DWIDTH 13 0
BBX 14 11 0 0
BITMAP
01FC
0384
0380
0580
0988
09F8
1188
3F80
2180
4184
E3FC
ENDCHAR

STARTCHAR Ccedilla
ENCODING 199
SWIDTH 711 0
DWIDTH 10 0
BBX 8 14 1 -3
BITMAP
1F
61
61
C0
C0
C0
C0
C0
60
61
1E
20
18
18
ENDCHAR

STARTCHAR Egrave
ENCODING 200
SWIDTH 601 0
DWIDTH 8 0
BBX 8 14 0 0
BITMAP
30
08
00
FF
61
60
60
62
7E
62
60
60
61
FF
ENDCHAR

STARTCHAR Eacute
ENCODING 201
SWIDTH 601 0
DWIDTH 8 0
BBX 8 14 0 0
BITMAP
0C
10
00
FF
61
60
60
62
7E
62
60
60
61
FF
ENDCHAR

STARTCHAR Ecircumflex
ENCODING 202
SWIDTH 601 0
DWIDTH 8 0
BBX 8 14 0 0
BITMAP
1C
36
00
FF
61
60
60
62
7E
62
60
60
61
FF
ENDCHAR

STARTCHAR Edieresis
ENCODING 203
SWIDTH 601 0
DWIDTH 8 0
BBX 8 13 0 0
BITMAP
24
00
FF
61
60
60
62
7E
62
60
60
61
FF
ENDCHAR

STARTCHAR Igrave
ENCODING 204
SWIDTH 349 0
DWIDTH 5 0
BBX 4 14 0 0
BITMAP
C0
20
00
F0
60
60
60
60
60
60
60
60
60
F0
ENDCHAR

STARTCHAR Iacute
ENCODING 205
SWIDTH 349 0
DWIDTH 5 0
BBX 4 14 0 0
BITMAP
30
40
00
F0
60
60
60
60
60
60
60
60
60
F0
ENDCHAR

STARTCHAR Icircumflex
ENCODING 206
SWIDTH 349 0
DWIDTH 5 0
BBX 5 14 1 0
BITMAP
70
D8
00
78
30
30
30
30
30
30
30
30
30
78
ENDCHAR

STARTCHAR Idieresis
ENCODING 207
SWIDTH 349 0
DWIDTH 5 0
BBX 4 13 0 0
BITMAP
90
00
F0
60
60
60
60
60
60
60
60
60
F0
ENDCHAR

STARTCHAR Eth
ENCODING 208
SWIDTH 794 0
DWIDTH 11 0
BBX 10 11 0 0
BITMAP
FF00
6380
6180
60C0
60C0
F8C0
60C0
60C0
6180
6180
FE00
ENDCHAR

STARTCHAR Ntilde
ENCODING 209
SWIDTH 788 0
DWIDTH 11 0
BBX 10 13 0 0
BITMAP
1F00
0000
E1C0
6080
7080
5880
5880
4C80
4680
4680
4380
4180
E180
ENDCHAR

STARTCHAR Ograve
ENCODING 210
SWIDTH 810 0
DWIDTH 11 0
BBX 10 14 1 0
BITMAP
1800
0400
0000
1E00
6180
6180
C0C0
C0C0
C0C0
C0C0
C0C0
6180
6180
1E00
ENDCHAR

STARTCHAR Oacute
ENCODING 211
SWIDTH 810 0
DWIDTH 11 0
BBX 10 14 1 0
BITMAP
0600
0800
0000
1E00
6180
6180
C0C0
C0C0
C0C0
C0C0
C0C0
6180
6180
1E00
ENDCHAR

STARTCHAR Ocircumflex
ENCODING 212
SWIDTH 810 0
DWIDTH 11 0
BBX 10 14 1 0
BITMAP
1C00
3600
0000
1E00
6180
6180
C0C0
C0C0
C0C0
C0C0
C0C0
6180
6180
1E00
ENDCHAR

STARTCHAR Otilde
ENCODING 213
SWIDTH 810 0
DWIDTH 11 0
BBX 10 13 1 0
BITMAP
3E00
0000
1E00
6180
6180
C0C0
C0C0
C0C0
C0C0
C0C0
6180
6180
1E00
ENDCHAR

STARTCHAR Odieresis
ENCODING 214
SWIDTH 810 0
DWIDTH 11 0
BBX 10 13 1 0
BITMAP
1200
0000
1E00
6180
6180
C0C0
C0C0
C0C0
C0C0
C0C0
6180
6180
1E00
ENDCHAR

STARTCHAR multiply
ENCODING 215
SWIDTH 623 0
DWIDTH 9 0
BBX 7 7 1 0
BITMAP
82
44
28
10
28
44
82
ENDCHAR

STARTCHAR Oslash
ENCODING 216
SWIDTH 810 0
DWIDTH 11 0
BBX 11 11 1 0
BITMAP
1E60
6180
6180
C3C0
C6C0
CCC0
C8C0
D0C0
6180
6180
9E00
ENDCHAR

STARTCHAR Ugrave
ENCODING 217
SWIDTH 747 0
DWIDTH 10 0
BBX 10 14 0 0
BITMAP
1800
0400
0000
F1C0
6080
6080
6080
6080
6080
6080
6080
6080
3100
1E00
ENDCHAR

STARTCHAR Uacute
ENCODING 218
SWIDTH 747 0
DWIDTH 10 0
BBX 10 14 0 0
BITMAP
0600
0800
0000
F1C0
6080
6080
6080
6080
6080
6080
6080
6080
3100
1E00
ENDCHAR

STARTCHAR Ucircumflex
ENCODING 219
SWIDTH 747 0
DWIDTH 10 0
BBX 10 14 0 0
BITMAP
0E00
1B00
0000
F1C0
6080
6080
6080
6080
6080
6080
6080
6080
3100
1E00
ENDCHAR

STARTCHAR Udieresis
ENCODING 220
SWIDTH 747 0
DWIDTH 10 0
BBX 10 13 0 0
BITMAP
1200
0000
F1C0
6080
6080
6080
6080
6080
6080
6080
6080
3100
1E00
ENDCHAR

STARTCHAR Yacute
ENCODING 221
SWIDTH 717 0
DWIDTH 10 0
BBX 10 14 0 0
BITMAP
0600
0800
0000
F1C0
6080
3100
3900
1A00
1C00
0C00
0C00
0C00
0C00
1E00
ENDCHAR

STARTCHAR Thorn
ENCODING 222
SWIDTH 614 0
DWIDTH 9 0
BBX 8 11 0 0
BITMAP
F0
60
7E
67
63
63
63
66
7C
60
F0
ENDCHAR

STARTCHAR germandbls
ENCODING 223
SWIDTH 700 0
DWIDTH 10 0
BBX 9 11 0 0
BITMAP
3C00
6600
6600
6400
6800
6C00
6600
6380
6180
6980
FF00
ENDCHAR

STARTCHAR agrave
ENCODING 224
SWIDTH 556 0
DWIDTH 8 0
BBX 7 11 0 0
BITMAP
30
08
00
78
4C
0C
7C
CC
CC
CC
76
ENDCHAR

STARTCHAR aacute
ENCODING 225
SWIDTH 556 0
DWIDTH 8 0
BBX 7 11 0 0
BITMAP
18
20
00
78
4C
0C
7C
CC
CC
CC
76
ENDCHAR

STARTCHAR acircumflex
ENCODING 226
SWIDTH 556 0
DWIDTH 8 0
BBX 7 11 0 0
BITMAP
38
6C
00
78
4C
0C
7C
CC
CC
CC
76
ENDCHAR

STARTCHAR atilde
ENCODING 227
SWIDTH 556 0
DWIDTH 8 0
BBX 7 10 0 0
BITMAP
7C
00
78
4C
0C
7C
CC
CC
CC
76
ENDCHAR

STARTCHAR adieresis
ENCODING 228
SWIDTH 556 0
DWIDTH 8 0
BBX 7 10 0 0
BITMAP
48
00
78
4C
0C
7C
CC
CC
CC
76
ENDCHAR

STARTCHAR aring
ENCODING 229
SWIDTH 556 0
DWIDTH 8 0
BBX 7 11 0 0
BITMAP
38
38
00
78
4C
0C
7C
CC
CC
CC
76
ENDCHAR

STARTCHAR ae
ENCODING 230
SWIDTH 858 0
DWIDTH 12 0
BBX 12 8 0 0
BITMAP
7DE0
4620
0630
7FF0
E600
C600
C710
7BF0
ENDCHAR

STARTCHAR ccedilla
ENCODING 231
SWIDTH 541 0
DWIDTH 8 0
BBX 6 11 1 -3
BITMAP
3C
64
C4
C0
C0
C0
60
3C
40
30
30
ENDCHAR

STARTCHAR egrave
ENCODING 232
SWIDTH 568 0
DWIDTH 8 0
BBX 7 11 0 0
BITMAP
30
08
00
3C
46
C6
FE
C0
C0
62
3E
ENDCHAR

STARTCHAR eacute
ENCODING 233
SWIDTH 568 0
DWIDTH 8 0
BBX 7 11 0 0
BITMAP
0C
10
00
3C
46
C6
FE
C0
C0
62
3E
ENDCHAR

STARTCHAR ecircumflex
ENCODING 234
SWIDTH 568 0
DWIDTH 8 0
BBX 7 11 0 0
BITMAP
38
6C
00
3C
46
C6
FE
C0
C0
62
3E
ENDCHAR

STARTCHAR edieresis
ENCODING 235
SWIDTH 568 0
DWIDTH 8 0
BBX 7 10 0 0
BITMAP
24
00
3C
46
C6
FE
C0
C0
62
3E
ENDCHAR

STARTCHAR igrave
ENCODING 236
SWIDTH 325 0
DWIDTH 5 0
BBX 4 11 0 0
BITMAP
C0
20
00
E0
60
60
60
60
60
60
F0
ENDCHAR

STARTCHAR iacute
ENCODING 237
SWIDTH 325 0
DWIDTH 5 0
BBX 4 11 0 0
BITMAP
30
40
00
E0
60
60
60
60
60
60
F0
ENDCHAR

STARTCHAR icircumflex
ENCODING 238
SWIDTH 325 0
DWIDTH 5 0
BBX 5 11 1 0
BITMAP
70
D8
00
70
30
30
30
30
30
30
78
ENDCHAR

STARTCHAR idieresis
ENCODING 239
SWIDTH 325 0
DWIDTH 5 0
BBX 4 10 0 0
BITMAP
90
00
E0
60
60
60
60
60
60
F0
ENDCHAR

STARTCHAR eth
ENCODING 240
SWIDTH 652 0
DWIDTH 9 0
BBX 8 12 1 0
BITMAP
08
F0
18
6C
3E
67
C3
C3
C3
C3
66
3C
ENDCHAR

STARTCHAR ntilde
ENCODING 241
SWIDTH 654 0
DWIDTH 9 0
BBX 9 10 0 0
BITMAP
3E00
0000
EE00
7300
6300
6300
6300
6300
6300
F780
ENDCHAR

STARTCHAR ograve
ENCODING 242
SWIDTH 617 0
DWIDTH 9 0
BBX 8 11 0 0
BITMAP
30
08
00
3C
66
C3
C3
C3
C3
66
3C
ENDCHAR

STARTCHAR oacute
ENCODING 243
SWIDTH 617 0
DWIDTH 9 0
BBX 8 11 0 0
BITMAP
0C
10
00
3C
66
C3
C3
C3
C3
66
3C
ENDCHAR

STARTCHAR ocircumflex
ENCODING 244
SWIDTH 617 0
DWIDTH 9 0
BBX 8 11 0 0
BITMAP
1C
36
00
3C
66
C3
C3
C3
C3
66
3C
ENDCHAR

STARTCHAR otilde
ENCODING 245
SWIDTH 617 0
DWIDTH 9 0
BBX 8 10 0 0
BITMAP
3E
00
3C
66
C3
C3
C3
C3
66
3C
ENDCHAR

STARTCHAR odieresis
ENCODING 246
SWIDTH 617 0
DWIDTH 9 0
BBX 8 10 0 0
BITMAP
24
00
3C
66
C3
C3
C3
C3
66
3C
ENDCHAR

STARTCHAR divide
ENCODING 247
SWIDTH 623 0
DWIDTH 9 0
BBX 7 7 1 1
BITMAP
10
00
00
FE
00
00
10
ENDCHAR

STARTCHAR oslash
ENCODING 248
SWIDTH 617 0
DWIDTH 9 0
BBX 9 8 0 0
BITMAP
3D80
6600
C700
CF00
DB00
F300
6600
FC00
ENDCHAR

STARTCHAR ugrave
ENCODING 249
SWIDTH 654 0
DWIDTH 9 0
BBX 9 11 0 0
BITMAP
1800
0400
0000
E700
6300
6300
6300
6300
6300
6700
3B80
ENDCHAR

STARTCHAR uacute
ENCODING 250
SWIDTH 654 0
DWIDTH 9 0
BBX 9 11 0 0
BITMAP
0600
0800
0000
E700
6300
6300
6300
6300
6300
6700
3B80
ENDCHAR

STARTCHAR ucircumflex
ENCODING 251
SWIDTH 654 0
DWIDTH 9 0
BBX 9 11 0 0
BITMAP
1C00
3600
0000
E700
6300
6300
6300
6300
6300
6700
3B80
ENDCHAR

STARTCHAR udieresis
ENCODING 252
SWIDTH 654 0
DWIDTH 9 0
BBX 9 10 0 0
BITMAP
1200
0000
E700
6300
6300
6300
6300
6300
6700
3B80
ENDCHAR

STARTCHAR yacute
ENCODING 253
SWIDTH 654 0
DWIDTH 9 0
BBX 9 14 0 -3
BITMAP
0600
0800
0000
F380
6100
3100
3200
1E00
1C00
0C00
0800
0800
1000
7000
ENDCHAR

STARTCHAR thorn
ENCODING 254
SWIDTH 652 0
DWIDTH 9 0
BBX 8 13 0 -3
BITMAP
E0
60
7E
63
63
63
63
63
66
7E
60
60
F0
ENDCHAR

STARTCHAR ydieresis
ENCODING 255
SWIDTH 654 0
DWIDTH 9 0
BBX 9 13 0 -3
BITMAP
1200
0000
F380
6100
3100
3200
1E00
1C00
0C00
0800
0800
1000
7000
ENDCHAR
ENDFONT
